<svg width="1454" height="428" viewBox="0 0 1454 428" fill="none" xmlns="http://www.w3.org/2000/svg">
<path d="M396.663 235.193V214.436H427.144C431.133 214.436 434.749 213.626 437.99 212.005C441.231 210.384 443.787 208.078 445.657 205.086C447.527 201.969 448.462 198.229 448.462 193.866C448.462 189.627 447.527 185.95 445.657 182.833C443.787 179.716 441.231 177.348 437.99 175.727C434.749 174.106 431.133 173.296 427.144 173.296H396.663V152.539H429.762C438.115 152.539 445.595 154.222 452.202 157.588C458.934 160.954 464.232 165.754 468.097 171.987C471.962 178.096 473.894 185.389 473.894 193.866C473.894 202.343 471.962 209.699 468.097 215.932C464.232 222.041 458.934 226.778 452.202 230.144C445.595 233.51 438.115 235.193 429.762 235.193H396.663ZM377.963 284V152.539H403.395V284H377.963ZM533.5 285.87C525.272 285.87 517.854 283.813 511.247 279.699C504.64 275.585 499.466 269.975 495.726 262.869C491.986 255.763 490.116 247.784 490.116 238.933C490.116 229.957 491.986 221.916 495.726 214.81C499.466 207.704 504.64 202.094 511.247 197.98C517.854 193.866 525.272 191.809 533.5 191.809C539.983 191.809 545.78 193.118 550.891 195.736C556.002 198.354 560.054 202.032 563.046 206.769C566.163 211.382 567.846 216.618 568.095 222.477V255.015C567.846 260.999 566.163 266.297 563.046 270.91C560.054 275.523 556.002 279.2 550.891 281.943C545.78 284.561 539.983 285.87 533.5 285.87ZM537.988 263.243C544.845 263.243 550.392 260.999 554.631 256.511C558.87 251.898 560.989 245.977 560.989 238.746C560.989 234.009 559.992 229.832 557.997 226.217C556.127 222.477 553.447 219.61 549.956 217.615C546.59 215.496 542.601 214.436 537.988 214.436C533.5 214.436 529.511 215.496 526.02 217.615C522.654 219.61 519.974 222.477 517.979 226.217C516.109 229.832 515.174 234.009 515.174 238.746C515.174 243.608 516.109 247.909 517.979 251.649C519.974 255.264 522.654 258.132 526.02 260.251C529.511 262.246 533.5 263.243 537.988 263.243ZM559.68 284V259.69L563.607 237.624L559.68 215.932V193.679H583.99V284H559.68ZM672.608 284L637.639 237.437L672.421 193.679H700.658L659.892 243.047L660.827 231.079L702.528 284H672.608ZM615.012 284V148.799H639.509V284H615.012ZM756.731 285.87C748.503 285.87 741.086 283.813 734.478 279.699C727.871 275.585 722.697 269.975 718.957 262.869C715.217 255.763 713.347 247.784 713.347 238.933C713.347 229.957 715.217 221.916 718.957 214.81C722.697 207.704 727.871 202.094 734.478 197.98C741.086 193.866 748.503 191.809 756.731 191.809C763.214 191.809 769.011 193.118 774.122 195.736C779.234 198.354 783.285 202.032 786.277 206.769C789.394 211.382 791.077 216.618 791.326 222.477V255.015C791.077 260.999 789.394 266.297 786.277 270.91C783.285 275.523 779.234 279.2 774.122 281.943C769.011 284.561 763.214 285.87 756.731 285.87ZM761.219 263.243C768.076 263.243 773.624 260.999 777.862 256.511C782.101 251.898 784.22 245.977 784.22 238.746C784.22 234.009 783.223 229.832 781.228 226.217C779.358 222.477 776.678 219.61 773.187 217.615C769.821 215.496 765.832 214.436 761.219 214.436C756.731 214.436 752.742 215.496 749.251 217.615C745.885 219.61 743.205 222.477 741.21 226.217C739.34 229.832 738.405 234.009 738.405 238.746C738.405 243.608 739.34 247.909 741.21 251.649C743.205 255.264 745.885 258.132 749.251 260.251C752.742 262.246 756.731 263.243 761.219 263.243ZM782.911 284V259.69L786.838 237.624L782.911 215.932V193.679H807.221V284H782.911ZM838.243 284V193.679H862.74V284H838.243ZM862.74 234.071L853.203 227.713C854.325 216.618 857.566 207.891 862.927 201.533C868.288 195.05 876.017 191.809 886.115 191.809C890.478 191.809 894.405 192.557 897.896 194.053C901.387 195.424 904.566 197.731 907.433 200.972L892.099 218.55C890.728 217.054 889.045 215.932 887.05 215.184C885.18 214.436 882.998 214.062 880.505 214.062C875.269 214.062 870.968 215.745 867.602 219.111C864.361 222.352 862.74 227.339 862.74 234.071ZM985.798 284V232.201C985.798 226.84 984.115 222.477 980.749 219.111C977.383 215.745 973.019 214.062 967.659 214.062C964.168 214.062 961.051 214.81 958.309 216.306C955.566 217.802 953.384 219.921 951.764 222.664C950.268 225.407 949.52 228.586 949.52 232.201L939.983 227.339C939.983 220.233 941.479 214.062 944.471 208.826C947.587 203.465 951.826 199.289 957.187 196.297C962.672 193.305 968.843 191.809 975.7 191.809C982.307 191.809 988.229 193.492 993.465 196.858C998.701 200.099 1002.81 204.4 1005.81 209.761C1008.8 214.997 1010.29 220.669 1010.29 226.778V284H985.798ZM925.023 284V193.679H949.52V284H925.023ZM1082.57 285.87C1073.1 285.87 1064.68 283.875 1057.33 279.886C1049.97 275.772 1044.11 270.162 1039.75 263.056C1035.51 255.95 1033.39 247.847 1033.39 238.746C1033.39 229.77 1035.45 221.791 1039.56 214.81C1043.8 207.704 1049.54 202.094 1056.77 197.98C1064 193.741 1072.04 191.622 1080.89 191.622C1089.62 191.622 1097.29 193.617 1103.89 197.606C1110.62 201.471 1115.86 206.831 1119.6 213.688C1123.47 220.42 1125.4 228.087 1125.4 236.689C1125.4 238.31 1125.27 239.993 1125.02 241.738C1124.9 243.359 1124.59 245.229 1124.09 247.348L1048.17 247.535V229.209L1112.68 229.022L1102.77 236.689C1102.52 231.328 1101.52 226.84 1099.78 223.225C1098.16 219.61 1095.73 216.867 1092.49 214.997C1089.37 213.002 1085.5 212.005 1080.89 212.005C1076.03 212.005 1071.79 213.127 1068.18 215.371C1064.56 217.49 1061.76 220.545 1059.76 224.534C1057.89 228.399 1056.96 233.011 1056.96 238.372C1056.96 243.857 1057.95 248.657 1059.95 252.771C1062.07 256.76 1065.06 259.877 1068.92 262.121C1072.79 264.24 1077.28 265.3 1082.39 265.3C1087 265.3 1091.18 264.552 1094.92 263.056C1098.66 261.435 1101.9 259.067 1104.64 255.95L1119.04 270.349C1114.68 275.46 1109.32 279.325 1102.96 281.943C1096.72 284.561 1089.93 285.87 1082.57 285.87ZM1149.9 284V193.679H1174.39V284H1149.9ZM1208.8 284V230.705C1208.8 225.469 1207.12 221.417 1203.75 218.55C1200.51 215.558 1196.46 214.062 1191.6 214.062C1188.36 214.062 1185.43 214.748 1182.81 216.119C1180.19 217.366 1178.13 219.236 1176.64 221.729C1175.14 224.222 1174.39 227.214 1174.39 230.705L1164.86 226.03C1164.86 219.049 1166.35 213.002 1169.35 207.891C1172.46 202.78 1176.64 198.853 1181.87 196.11C1187.11 193.243 1193.03 191.809 1199.64 191.809C1205.87 191.809 1211.55 193.243 1216.66 196.11C1221.77 198.853 1225.82 202.78 1228.81 207.891C1231.8 212.878 1233.3 218.924 1233.3 226.03V284H1208.8ZM1267.71 284V230.705C1267.71 225.469 1266.02 221.417 1262.66 218.55C1259.42 215.558 1255.37 214.062 1250.5 214.062C1247.39 214.062 1244.46 214.748 1241.71 216.119C1239.1 217.366 1237.04 219.236 1235.54 221.729C1234.05 224.222 1233.3 227.214 1233.3 230.705L1219.27 227.339C1219.77 220.108 1221.71 213.875 1225.07 208.639C1228.44 203.278 1232.86 199.164 1238.35 196.297C1243.83 193.305 1249.94 191.809 1256.67 191.809C1263.41 191.809 1269.45 193.243 1274.81 196.11C1280.17 198.853 1284.41 202.842 1287.53 208.078C1290.65 213.314 1292.2 219.547 1292.2 226.778V284H1267.71ZM1359.19 285.87C1350.96 285.87 1343.54 283.813 1336.93 279.699C1330.33 275.585 1325.15 269.975 1321.41 262.869C1317.67 255.763 1315.8 247.784 1315.8 238.933C1315.8 229.957 1317.67 221.916 1321.41 214.81C1325.15 207.704 1330.33 202.094 1336.93 197.98C1343.54 193.866 1350.96 191.809 1359.19 191.809C1365.67 191.809 1371.47 193.118 1376.58 195.736C1381.69 198.354 1385.74 202.032 1388.73 206.769C1391.85 211.382 1393.53 216.618 1393.78 222.477V255.015C1393.53 260.999 1391.85 266.297 1388.73 270.91C1385.74 275.523 1381.69 279.2 1376.58 281.943C1371.47 284.561 1365.67 285.87 1359.19 285.87ZM1363.67 263.243C1370.53 263.243 1376.08 260.999 1380.32 256.511C1384.56 251.898 1386.67 245.977 1386.67 238.746C1386.67 234.009 1385.68 229.832 1383.68 226.217C1381.81 222.477 1379.13 219.61 1375.64 217.615C1372.28 215.496 1368.29 214.436 1363.67 214.436C1359.19 214.436 1355.2 215.496 1351.71 217.615C1348.34 219.61 1345.66 222.477 1343.66 226.217C1341.79 229.832 1340.86 234.009 1340.86 238.746C1340.86 243.608 1341.79 247.909 1343.66 251.649C1345.66 255.264 1348.34 258.132 1351.71 260.251C1355.2 262.246 1359.19 263.243 1363.67 263.243ZM1385.37 284V259.69L1389.29 237.624L1385.37 215.932V193.679H1409.68V284H1385.37Z" fill="#FEA116"/>
<path d="M301.5 59.0389C265.038 110.693 164.769 87.9043 105.519 179.058C52.9631 259.957 132.865 311.231 154.134 308.193C84.2498 356.808 66.019 346.174 56.9036 349.212C44.5599 353.342 49.3075 372 66.019 370.481C90.3267 365.924 145.019 329.462 160.211 317.308C174.074 306.246 240.731 253.5 280.231 156.27C251.365 265.654 187.557 321.866 177.303 330.934C183 340.097 195.106 353.153 224.019 358.327C283.269 368.962 372.904 288.443 301.5 59.0389Z" fill="#FEA116"/>
</svg>
